<svg width="24" height="25" viewBox="0 0 24 25" fill="none" xmlns="http://www.w3.org/2000/svg">
<path d="M16 5.55C16 6.82304 15.5786 8.04394 14.8284 8.94411C14.0783 9.84429 13.0609 10.35 12 10.35C10.9391 10.35 9.92172 9.84429 9.17157 8.94411C8.42143 8.04394 8 6.82304 8 5.55C8 4.27696 8.42143 3.05606 9.17157 2.15589C9.92172 1.25571 10.9391 0.75 12 0.75C13.0609 0.75 14.0783 1.25571 14.8284 2.15589C15.5786 3.05606 16 4.27696 16 5.55ZM22.6667 8.75C22.6667 9.59869 22.3857 10.4126 21.8856 11.0127C21.3855 11.6129 20.7072 11.95 20 11.95C19.2928 11.95 18.6145 11.6129 18.1144 11.0127C17.6143 10.4126 17.3333 9.59869 17.3333 8.75C17.3333 7.90131 17.6143 7.08737 18.1144 6.48726C18.6145 5.88714 19.2928 5.55 20 5.55C20.7072 5.55 21.3855 5.88714 21.8856 6.48726C22.3857 7.08737 22.6667 7.90131 22.6667 8.75ZM17.3333 19.95C17.3333 18.2526 16.7714 16.6247 15.7712 15.4245C14.771 14.2243 13.4145 13.55 12 13.55C10.5855 13.55 9.22896 14.2243 8.22876 15.4245C7.22857 16.6247 6.66667 18.2526 6.66667 19.95V24.75H17.3333V19.95ZM6.66667 8.75C6.66667 9.59869 6.38572 10.4126 5.88562 11.0127C5.38552 11.6129 4.70724 11.95 4 11.95C3.29276 11.95 2.61448 11.6129 2.11438 11.0127C1.61429 10.4126 1.33333 9.59869 1.33333 8.75C1.33333 7.90131 1.61429 7.08737 2.11438 6.48726C2.61448 5.88714 3.29276 5.55 4 5.55C4.70724 5.55 5.38552 5.88714 5.88562 6.48726C6.38572 7.08737 6.66667 7.90131 6.66667 8.75ZM20 24.75V19.95C20.0019 18.3233 19.6577 16.7228 19 15.3004C19.5911 15.1189 20.209 15.1018 20.8065 15.2504C21.404 15.399 21.9653 15.7093 22.4476 16.1579C22.9299 16.6064 23.3205 17.1811 23.5895 17.8383C23.8585 18.4955 23.9989 19.2178 24 19.95V24.75H20ZM5 15.3004C4.34233 16.7229 3.99813 18.3233 4 19.95V24.75H3.54293e-07V19.95C-0.000256624 19.2173 0.139284 18.4942 0.407929 17.8362C0.676574 17.1782 1.06719 16.6027 1.54985 16.1539C2.0325 15.705 2.59437 15.3948 3.19241 15.2468C3.79045 15.0989 4.40878 15.1172 5 15.3004Z" fill="white"/>
</svg>
