<svg width="24" height="25" viewBox="0 0 24 25" fill="none" xmlns="http://www.w3.org/2000/svg">
<path fill-rule="evenodd" clip-rule="evenodd" d="M12 24.75C15.1826 24.75 18.2348 23.4857 20.4853 21.2353C22.7357 18.9848 24 15.9326 24 12.75C24 9.5674 22.7357 6.51516 20.4853 4.26472C18.2348 2.01428 15.1826 0.75 12 0.75C8.8174 0.75 5.76516 2.01428 3.51472 4.26472C1.26428 6.51516 0 9.5674 0 12.75C0 15.9326 1.26428 18.9848 3.51472 21.2353C5.76516 23.4857 8.8174 24.75 12 24.75ZM13.5 6.75C13.5 6.35218 13.342 5.97064 13.0607 5.68934C12.7794 5.40804 12.3978 5.25 12 5.25C11.6022 5.25 11.2206 5.40804 10.9393 5.68934C10.658 5.97064 10.5 6.35218 10.5 6.75V12.75C10.5001 13.1478 10.6582 13.5293 10.9395 13.8105L15.1815 18.054C15.3209 18.1934 15.4863 18.3039 15.6684 18.3793C15.8505 18.4548 16.0457 18.4936 16.2428 18.4936C16.4398 18.4936 16.635 18.4548 16.8171 18.3793C16.9992 18.3039 17.1646 18.1934 17.304 18.054C17.4434 17.9146 17.5539 17.7492 17.6293 17.5671C17.7048 17.385 17.7436 17.1898 17.7436 16.9928C17.7436 16.7957 17.7048 16.6005 17.6293 16.4184C17.5539 16.2363 17.4434 16.0709 17.304 15.9315L13.5 12.129V6.75Z" fill="white"/>
</svg>
