<svg width="24" height="25" viewBox="0 0 24 25" fill="none" xmlns="http://www.w3.org/2000/svg">
<path d="M13.0421 0.689424C12.7608 0.408217 12.3793 0.250244 11.9816 0.250244C11.5838 0.250244 11.2024 0.408217 10.9211 0.689424L0.421068 11.1894C0.147831 11.4723 -0.00336092 11.8512 5.6704e-05 12.2445C0.00347433 12.6378 0.161228 13.014 0.43934 13.2922C0.717452 13.5703 1.09367 13.728 1.48697 13.7314C1.88026 13.7349 2.25916 13.5837 2.54207 13.3104L2.98157 12.8709V22.7499C2.98157 23.1477 3.1396 23.5293 3.42091 23.8106C3.70221 24.0919 4.08374 24.2499 4.48157 24.2499H7.48157C7.87939 24.2499 8.26092 24.0919 8.54223 23.8106C8.82353 23.5293 8.98157 23.1477 8.98157 22.7499V19.7499C8.98157 19.3521 9.1396 18.9706 9.42091 18.6893C9.70221 18.408 10.0837 18.2499 10.4816 18.2499H13.4816C13.8794 18.2499 14.2609 18.408 14.5422 18.6893C14.8235 18.9706 14.9816 19.3521 14.9816 19.7499V22.7499C14.9816 23.1477 15.1396 23.5293 15.4209 23.8106C15.7022 24.0919 16.0837 24.2499 16.4816 24.2499H19.4816C19.8794 24.2499 20.2609 24.0919 20.5422 23.8106C20.8235 23.5293 20.9816 23.1477 20.9816 22.7499V12.8709L21.4211 13.3104C21.704 13.5837 22.0829 13.7349 22.4762 13.7314C22.8695 13.728 23.2457 13.5703 23.5238 13.2922C23.8019 13.014 23.9597 12.6378 23.9631 12.2445C23.9665 11.8512 23.8153 11.4723 23.5421 11.1894L13.0421 0.689424Z" fill="white"/>
</svg>
