<svg width="24" height="25" viewBox="0 0 24 25" fill="none" xmlns="http://www.w3.org/2000/svg">
<path fill-rule="evenodd" clip-rule="evenodd" d="M24 16.25V3.45C24 2.60131 23.6839 1.78737 23.1213 1.18726C22.5587 0.587142 21.7956 0.25 21 0.25H3C2.20435 0.25 1.44129 0.587142 0.87868 1.18726C0.31607 1.78737 0 2.60131 0 3.45V16.25C0 17.0987 0.31607 17.9126 0.87868 18.5127C1.44129 19.1129 2.20435 19.45 3 19.45H7.5L12 24.25L16.5 19.45H21C21.7956 19.45 22.5587 19.1129 23.1213 18.5127C23.6839 17.9126 24 17.0987 24 16.25ZM4.5 6.65C4.5 6.22565 4.65804 5.81869 4.93934 5.51863C5.22064 5.21857 5.60218 5.05 6 5.05H18C18.3978 5.05 18.7794 5.21857 19.0607 5.51863C19.342 5.81869 19.5 6.22565 19.5 6.65C19.5 7.07435 19.342 7.48131 19.0607 7.78137C18.7794 8.08143 18.3978 8.25 18 8.25H6C5.60218 8.25 5.22064 8.08143 4.93934 7.78137C4.65804 7.48131 4.5 7.07435 4.5 6.65ZM6 11.45C5.60218 11.45 5.22064 11.6186 4.93934 11.9186C4.65804 12.2187 4.5 12.6257 4.5 13.05C4.5 13.4743 4.65804 13.8813 4.93934 14.1814C5.22064 14.4814 5.60218 14.65 6 14.65H10.5C10.8978 14.65 11.2794 14.4814 11.5607 14.1814C11.842 13.8813 12 13.4743 12 13.05C12 12.6257 11.842 12.2187 11.5607 11.9186C11.2794 11.6186 10.8978 11.45 10.5 11.45H6Z" fill="white"/>
</svg>
