<svg width="24" height="25" viewBox="0 0 24 25" fill="none" xmlns="http://www.w3.org/2000/svg">
<path fill-rule="evenodd" clip-rule="evenodd" d="M0.249 5.22783C4.5917 5.17507 8.76722 3.58395 12 0.75C15.2326 3.58448 19.4081 5.17613 23.751 5.2293C23.916 6.18203 24 7.16407 24 8.16224C24 15.8207 18.99 22.3359 12 24.75C5.01 22.3345 0 15.8193 0 8.16077C0 7.16114 0.0854998 6.18203 0.249 5.22783ZM17.5605 10.6628C17.8337 10.3863 17.9849 10.0161 17.9815 9.63179C17.9781 9.24747 17.8203 8.87985 17.5422 8.60809C17.2641 8.33633 16.8879 8.18218 16.4946 8.17884C16.1013 8.1755 15.7224 8.32324 15.4395 8.59023L10.5 13.4169L8.5605 11.5217C8.2776 11.2547 7.89869 11.107 7.5054 11.1103C7.1121 11.1137 6.73588 11.2678 6.45777 11.5396C6.17966 11.8113 6.02191 12.179 6.01849 12.5633C6.01507 12.9476 6.16626 13.3178 6.4395 13.5943L9.4395 16.5257C9.72079 16.8005 10.1023 16.9549 10.5 16.9549C10.8977 16.9549 11.2792 16.8005 11.5605 16.5257L17.5605 10.6628Z" fill="white"/>
</svg>
