<svg width="24" height="25" viewBox="0 0 24 25" fill="none" xmlns="http://www.w3.org/2000/svg">
<path d="M4.49992 2.46429C4.49992 2.00963 4.34188 1.57359 4.06057 1.2521C3.77926 0.930612 3.39773 0.75 2.9999 0.75C2.60207 0.75 2.22054 0.930612 1.93923 1.2521C1.65792 1.57359 1.49988 2.00963 1.49988 2.46429V14.9237C1.04386 15.2246 0.665174 15.6575 0.40189 16.1786C0.138607 16.6998 0 17.291 0 17.8929C0 18.4947 0.138607 19.0859 0.40189 19.6071C0.665174 20.1283 1.04386 20.5611 1.49988 20.862V23.0357C1.49988 23.4904 1.65792 23.9264 1.93923 24.2479C2.22054 24.5694 2.60207 24.75 2.9999 24.75C3.39773 24.75 3.77926 24.5694 4.06057 24.2479C4.34188 23.9264 4.49992 23.4904 4.49992 23.0357V20.862C4.95594 20.5611 5.33463 20.1283 5.59791 19.6071C5.8612 19.0859 5.9998 18.4947 5.9998 17.8929C5.9998 17.291 5.8612 16.6998 5.59791 16.1786C5.33463 15.6575 4.95594 15.2246 4.49992 14.9237V2.46429ZM13.5 2.46429C13.5 2.00963 13.342 1.57359 13.0607 1.2521C12.7794 0.930612 12.3978 0.75 12 0.75C11.6022 0.75 11.2206 0.930612 10.9393 1.2521C10.658 1.57359 10.5 2.00963 10.5 2.46429V4.638C10.044 4.93893 9.66527 5.37174 9.40199 5.89293C9.13871 6.41412 9.0001 7.00533 9.0001 7.60714C9.0001 8.20895 9.13871 8.80016 9.40199 9.32135C9.66527 9.84254 10.044 10.2754 10.5 10.5763V23.0357C10.5 23.4904 10.658 23.9264 10.9393 24.2479C11.2206 24.5694 11.6022 24.75 12 24.75C12.3978 24.75 12.7794 24.5694 13.0607 24.2479C13.342 23.9264 13.5 23.4904 13.5 23.0357V10.5763C13.956 10.2754 14.3347 9.84254 14.598 9.32135C14.8613 8.80016 14.9999 8.20895 14.9999 7.60714C14.9999 7.00533 14.8613 6.41412 14.598 5.89293C14.3347 5.37174 13.956 4.93893 13.5 4.638V2.46429ZM21.0001 0.75C21.3979 0.75 21.7795 0.930612 22.0608 1.2521C22.3421 1.57359 22.5001 2.00963 22.5001 2.46429V14.9237C22.9561 15.2246 23.3348 15.6575 23.5981 16.1786C23.8614 16.6998 24 17.291 24 17.8929C24 18.4947 23.8614 19.0859 23.5981 19.6071C23.3348 20.1283 22.9561 20.5611 22.5001 20.862V23.0357C22.5001 23.4904 22.3421 23.9264 22.0608 24.2479C21.7795 24.5694 21.3979 24.75 21.0001 24.75C20.6023 24.75 20.2207 24.5694 19.9394 24.2479C19.6581 23.9264 19.5001 23.4904 19.5001 23.0357V20.862C19.0441 20.5611 18.6654 20.1283 18.4021 19.6071C18.1388 19.0859 18.0002 18.4947 18.0002 17.8929C18.0002 17.291 18.1388 16.6998 18.4021 16.1786C18.6654 15.6575 19.0441 15.2246 19.5001 14.9237V2.46429C19.5001 2.00963 19.6581 1.57359 19.9394 1.2521C20.2207 0.930612 20.6023 0.75 21.0001 0.75Z" fill="white"/>
</svg>
