<svg width="24" height="25" viewBox="0 0 24 25" fill="none" xmlns="http://www.w3.org/2000/svg">
<path fill-rule="evenodd" clip-rule="evenodd" d="M24 12.25C24 15.4326 22.7357 18.4848 20.4853 20.7353C18.2348 22.9857 15.1826 24.25 12 24.25C8.8174 24.25 5.76516 22.9857 3.51472 20.7353C1.26428 18.4848 0 15.4326 0 12.25C0 9.0674 1.26428 6.01516 3.51472 3.76472C5.76516 1.51428 8.8174 0.25 12 0.25C15.1826 0.25 18.2348 1.51428 20.4853 3.76472C22.7357 6.01516 24 9.0674 24 12.25ZM12 7.75C11.7364 7.74974 11.4775 7.81893 11.2492 7.9506C11.0209 8.08226 10.8313 8.27176 10.6995 8.5C10.6043 8.67681 10.4747 8.83273 10.3181 8.95849C10.1616 9.08426 9.98143 9.17731 9.78828 9.23215C9.59512 9.28699 9.39292 9.30249 9.19366 9.27773C8.9944 9.25297 8.80214 9.18846 8.62828 9.08802C8.45441 8.98758 8.30248 8.85325 8.1815 8.693C8.06051 8.53275 7.97293 8.34985 7.92394 8.15512C7.87496 7.9604 7.86556 7.75782 7.89632 7.5594C7.92708 7.36098 7.99736 7.17075 8.103 7C8.59833 6.14217 9.36286 5.47174 10.278 5.09269C11.1932 4.71364 12.2079 4.64716 13.1647 4.90354C14.1215 5.15992 14.967 5.72484 15.57 6.5107C16.1731 7.29656 16.5 8.25943 16.5 9.25C16.5003 10.1809 16.2119 11.089 15.6746 11.8493C15.1374 12.6095 14.3776 13.1845 13.5 13.495V13.75C13.5 14.1478 13.342 14.5294 13.0607 14.8107C12.7794 15.092 12.3978 15.25 12 15.25C11.6022 15.25 11.2206 15.092 10.9393 14.8107C10.658 14.5294 10.5 14.1478 10.5 13.75V12.25C10.5 11.8522 10.658 11.4706 10.9393 11.1893C11.2206 10.908 11.6022 10.75 12 10.75C12.3978 10.75 12.7794 10.592 13.0607 10.3107C13.342 10.0294 13.5 9.64782 13.5 9.25C13.5 8.85218 13.342 8.47064 13.0607 8.18934C12.7794 7.90804 12.3978 7.75 12 7.75ZM12 19.75C12.3978 19.75 12.7794 19.592 13.0607 19.3107C13.342 19.0294 13.5 18.6478 13.5 18.25C13.5 17.8522 13.342 17.4706 13.0607 17.1893C12.7794 16.908 12.3978 16.75 12 16.75C11.6022 16.75 11.2206 16.908 10.9393 17.1893C10.658 17.4706 10.5 17.8522 10.5 18.25C10.5 18.6478 10.658 19.0294 10.9393 19.3107C11.2206 19.592 11.6022 19.75 12 19.75Z" fill="white"/>
</svg>
