<svg width="24" height="25" viewBox="0 0 24 25" fill="none" xmlns="http://www.w3.org/2000/svg">
<path fill-rule="evenodd" clip-rule="evenodd" d="M2.39999 6.2501C2.39999 5.61358 2.65285 5.00313 3.10294 4.55304C3.55302 4.10295 4.16347 3.8501 4.79999 3.8501H14.4C15.0365 3.8501 15.647 4.10295 16.097 4.55304C16.5471 5.00313 16.8 5.61358 16.8 6.2501V18.2501C16.8 18.8866 17.0528 19.4971 17.5029 19.9472C17.953 20.3972 18.5635 20.6501 19.2 20.6501H4.79999C4.16347 20.6501 3.55302 20.3972 3.10294 19.9472C2.65285 19.4971 2.39999 18.8866 2.39999 18.2501V6.2501ZM5.99999 7.4501H13.2V12.2501H5.99999V7.4501ZM13.2 14.6501H5.99999V17.0501H13.2V14.6501Z" fill="white"/>
<path d="M18 8.6499H19.2C19.8365 8.6499 20.447 8.90276 20.8971 9.35285C21.3471 9.80293 21.6 10.4134 21.6 11.0499V17.6499C21.6 18.1273 21.4104 18.5851 21.0728 18.9227C20.7352 19.2603 20.2774 19.4499 19.8 19.4499C19.3226 19.4499 18.8648 19.2603 18.5272 18.9227C18.1896 18.5851 18 18.1273 18 17.6499V8.6499Z" fill="white"/>
</svg>
